<svg width="30" height="30" viewBox="0 0 30 30" fill="none" xmlns="http://www.w3.org/2000/svg">
<g clip-path="url(#clip0_21_678)">
<path d="M6.41361 29.9668C6.65683 29.9668 6.90005 29.9668 7.14327 29.9668C7.38849 29.9668 7.55841 29.8665 7.55308 29.6086C7.54841 29.3683 7.38649 29.2745 7.15393 29.2752C6.65616 29.2765 6.15906 29.2752 5.66129 29.2752C5.42873 29.2752 5.27147 29.3729 5.26814 29.6145C5.26414 29.8561 5.41874 29.9609 5.65063 29.9655C5.90451 29.97 6.15906 29.9668 6.41361 29.9668Z" fill="#FDFDFD"/>
<path d="M10.1955 30.0001C9.84962 29.6289 9.88228 29.4335 10.3307 29.2388C10.2928 29.1086 10.1635 29.1177 10.0709 29.0832C6.25197 27.685 3.41463 25.2012 1.57415 21.6559C0.617266 19.8143 0.124829 17.8371 0.0202111 15.7676C-0.110395 13.1757 0.390705 10.7056 1.56083 8.38461C2.79958 5.92754 4.57542 3.8892 6.9743 2.45781C12.3225 -0.733193 17.7586 -0.814596 23.2214 2.20514C23.9824 2.62583 24.6754 3.15267 25.3437 3.70491C25.6196 3.93284 25.6429 4.11583 25.3944 4.36069C23.9884 5.74194 22.5764 7.11798 21.167 8.49597C20.9238 8.73367 20.6999 8.65552 20.4653 8.47318C19.3605 7.61617 18.1051 7.08542 16.7191 6.84381C12.0673 6.03369 7.51671 9.31391 6.93498 13.8972C6.37191 18.3353 9.2619 22.3052 13.7598 23.1303C16.1573 23.5699 18.4523 23.1935 20.5007 21.7986C21.6335 21.0275 22.583 19.6528 22.8709 18.3718C22.7496 18.3718 22.6343 18.3718 22.5197 18.3718C20.2161 18.3692 17.9125 18.3659 15.6083 18.3633C15.0632 18.3627 14.9692 18.2728 14.9692 17.746C14.9692 16.0248 14.9686 14.3036 14.9692 12.5824C14.9692 12.079 15.0519 11.9976 15.565 11.9976C20.0615 11.9976 24.5588 11.9976 29.0553 11.9976C29.5344 11.9976 29.5778 12.0373 29.6777 12.4834C29.797 13.0122 29.8916 13.5436 29.9356 14.0835C29.9396 14.1349 29.9309 14.1935 29.9996 14.2163V16.295C29.8769 16.3537 29.9356 16.4663 29.9269 16.5529C29.8196 17.6418 29.6391 18.717 29.3285 19.77C28.5895 22.2766 27.2981 24.464 25.3344 26.2386C23.1621 28.2021 20.58 29.3521 17.6633 29.8086C17.2122 29.879 16.7457 29.8425 16.3086 30.0001H10.1941H10.1955ZM24.6227 4.10411C24.6021 3.97907 24.5028 3.93674 24.4282 3.87944C21.1877 1.36636 17.4974 0.388217 13.4073 0.855146C11.7061 1.04921 10.0882 1.55717 8.56822 2.33994C5.92945 3.6984 3.88974 5.65403 2.46041 8.21595C2.38711 8.34684 2.32647 8.43801 2.49706 8.5637C3.85842 9.56659 5.21246 10.5792 6.56649 11.5925C6.70509 11.6961 6.78172 11.7033 6.85369 11.5242C7.00229 11.151 7.18687 10.7935 7.40277 10.4523C9.1053 7.75814 11.5808 6.26683 14.8026 6.04606C16.923 5.90084 18.8747 6.47783 20.6093 7.69757C20.7725 7.81219 20.8625 7.7946 20.9964 7.66306C22.1519 6.52667 23.3147 5.39744 24.4748 4.26561C24.5288 4.21351 24.5768 4.15556 24.6234 4.10476L24.6227 4.10411ZM15.7555 29.2772C16.3599 29.2342 17.1715 29.1769 17.9772 29.0324C20.3194 28.613 22.4144 27.6772 24.2689 26.2184C24.4841 26.0491 24.4675 25.943 24.2589 25.7867C22.9862 24.8346 21.7194 23.8753 20.4533 22.9154C20.3341 22.8249 20.2361 22.8073 20.0962 22.8828C19.0287 23.4605 17.8799 23.7822 16.6684 23.9072C15.0632 24.0733 13.4913 23.9632 11.9793 23.3713C9.60374 22.4413 7.91719 20.808 6.87168 18.5359C6.77906 18.334 6.73308 18.3002 6.53984 18.4473C5.22978 19.4411 3.91306 20.4264 2.58835 21.4013C2.3951 21.5439 2.38044 21.6442 2.49039 21.8428C3.35999 23.4116 4.50279 24.761 5.89614 25.9078C8.68284 28.2021 11.9193 29.2753 15.7549 29.2772H15.7555ZM20.9171 22.3788C20.9958 22.4439 21.0517 22.4947 21.1124 22.5396C22.2951 23.4325 23.4786 24.3234 24.6614 25.2168C25.0672 25.5229 25.0739 25.532 25.4237 25.1524C28.6269 21.6748 29.6937 17.5845 29.0633 13.0083C29.0307 12.77 28.9194 12.7009 28.6715 12.7009C24.4635 12.7088 20.2548 12.7081 16.0467 12.6996C15.7789 12.6996 15.6856 12.7576 15.6882 13.037C15.7029 14.4658 15.7036 15.8945 15.6896 17.3227C15.6869 17.6027 15.7802 17.66 16.0474 17.6581C18.0738 17.6457 20.1002 17.6476 22.1272 17.647C23.1241 17.647 24.1203 17.6535 25.1172 17.6516C25.3551 17.6516 25.513 17.7538 25.531 17.9791C25.5476 18.1973 25.387 18.3054 25.1805 18.3399C25.0938 18.3542 25.0046 18.3542 24.9159 18.3549C24.5834 18.3562 24.2509 18.3659 23.9197 18.3516C23.7238 18.3432 23.6239 18.3985 23.5692 18.5945C23.1394 20.1412 22.2572 21.3909 20.9178 22.3775L20.9171 22.3788ZM2.02794 9.07035C1.64745 9.88504 1.36558 10.6776 1.16101 11.4962C0.741208 13.1796 0.607937 14.8786 0.811175 16.6076C0.976432 18.0136 1.34026 19.3617 1.89467 20.6641C1.94665 20.7865 1.96131 20.9787 2.19653 20.8009C3.56989 19.7622 4.95191 18.7339 6.33393 17.7069C6.45588 17.6164 6.49985 17.5272 6.45921 17.378C6.02608 15.7995 6.02474 14.2196 6.46187 12.641C6.49985 12.5049 6.49053 12.4027 6.35792 12.3043C4.92192 11.2383 3.49126 10.1657 2.02727 9.07101L2.02794 9.07035Z" fill="#34393D"/>
<path d="M8.53344 30C8.3542 29.8404 8.15162 29.6848 8.3482 29.4152C8.46748 29.2511 8.95125 29.2107 9.13716 29.3423C9.37105 29.5077 9.31641 29.7708 8.99856 30H8.53344Z" fill="#34393D"/>
<path d="M6.41361 29.9668C6.15906 29.9668 5.90518 29.97 5.65063 29.9655C5.41874 29.9609 5.26414 29.8561 5.26814 29.6145C5.27214 29.3729 5.42873 29.2752 5.66129 29.2752C6.15906 29.2752 6.65616 29.2752 7.15393 29.2752C7.38649 29.2752 7.54841 29.3683 7.55308 29.6086C7.55841 29.8665 7.38849 29.9668 7.14327 29.9668C6.90005 29.9668 6.65683 29.9668 6.41361 29.9668Z" fill="#34393D"/>
<path d="M24.6223 4.10403C24.5757 4.15483 24.5277 4.21213 24.4737 4.26488C23.3136 5.39671 22.1515 6.52659 20.9954 7.66233C20.8614 7.79387 20.7715 7.81146 20.6082 7.69684C18.8737 6.4771 16.9219 5.90011 14.8016 6.04533C11.5798 6.26545 9.10358 7.75741 7.4017 10.4515C7.18647 10.7921 7.00122 11.1503 6.85263 11.5234C6.78133 11.7032 6.70403 11.6954 6.56543 11.5918C5.21139 10.5785 3.85736 9.56586 2.49599 8.56297C2.32541 8.43728 2.38671 8.34611 2.45934 8.21522C3.88801 5.6533 5.92839 3.69767 8.56716 2.33921C10.0865 1.55709 11.705 1.04913 13.4062 0.854417C17.4963 0.387488 21.1866 1.36563 24.4278 3.87871C24.5017 3.93602 24.6017 3.97834 24.6223 4.10338V4.10403Z" fill="#ECB390"/>
<path d="M15.7555 29.2771C11.9193 29.2752 8.68349 28.202 5.89679 25.9077C4.50344 24.7609 3.36064 23.4115 2.49105 21.8427C2.3811 21.6441 2.39576 21.5438 2.589 21.4012C3.91372 20.427 5.2311 19.4417 6.54049 18.4472C6.7344 18.3001 6.77971 18.3346 6.87234 18.5358C7.91785 20.8079 9.60373 22.4412 11.98 23.3712C13.4919 23.9631 15.0638 24.0732 16.6691 23.9071C17.8805 23.7821 19.0287 23.4604 20.0968 22.8827C20.2368 22.8072 20.3347 22.8248 20.454 22.9153C21.7201 23.8752 22.9875 24.8345 24.2596 25.7866C24.4681 25.9429 24.4841 26.049 24.2696 26.2183C22.4151 27.6771 20.3201 28.6129 17.9778 29.0323C17.1722 29.1762 16.3599 29.2341 15.7562 29.2771H15.7555Z" fill="#94B49F"/>
<path d="M20.9161 22.3787C22.2548 21.3914 23.1378 20.1424 23.5676 18.5957C23.6222 18.3997 23.7222 18.3444 23.9181 18.3528C24.2499 18.3671 24.5824 18.3574 24.9143 18.3561C25.0022 18.3561 25.0922 18.3561 25.1788 18.3411C25.3854 18.3066 25.5466 18.1985 25.5293 17.9803C25.512 17.755 25.3541 17.6521 25.1155 17.6528C24.1186 17.6547 23.1224 17.6475 22.1256 17.6482C20.0992 17.6482 18.0721 17.6469 16.0457 17.6593C15.7785 17.6606 15.6852 17.6039 15.6879 17.3239C15.7019 15.8951 15.7012 14.4663 15.6866 13.0382C15.6839 12.7594 15.7772 12.7008 16.0451 12.7008C20.2531 12.7093 24.4618 12.7093 28.6699 12.7021C28.9177 12.7021 29.0284 12.7705 29.0617 13.0095C29.692 17.5857 28.6259 21.676 25.422 25.1536C25.0722 25.5332 25.0655 25.5241 24.6597 25.218C23.4776 24.3252 22.2935 23.4337 21.1107 22.5409C21.0507 22.4953 20.9941 22.4451 20.9155 22.38L20.9161 22.3787Z" fill="#DF7861"/>
<path d="M2.02749 9.07026C3.49147 10.165 4.92214 11.2375 6.35814 12.3036C6.49074 12.4019 6.4994 12.5042 6.46209 12.6403C6.02496 14.2188 6.02629 15.7987 6.45942 17.3773C6.50007 17.5258 6.45676 17.615 6.33415 17.7062C4.95213 18.7338 3.5701 19.7621 2.19675 20.8001C1.96152 20.9779 1.94686 20.7858 1.89489 20.6634C1.34048 19.3609 0.977314 18.0129 0.811391 16.6069C0.608153 14.8779 0.740758 13.1788 1.16123 11.4954C1.36513 10.6775 1.64767 9.88429 2.02816 9.06961L2.02749 9.07026Z" fill="#FCF8E8"/>
</g>
<defs>
<clipPath id="clip0_21_678">
<rect width="30" height="30" fill="white"/>
</clipPath>
</defs>
</svg>
